<svg width="24" height="24" viewBox="0 0 24 24" fill="none" xmlns="http://www.w3.org/2000/svg">
<path d="M15 5.91406C15.3604 5.91406 15.6531 6.066 15.916 6.2666C16.1673 6.45837 16.4444 6.73733 16.7676 7.06055L16.9395 7.23242C17.2627 7.55564 17.5416 7.83268 17.7334 8.08398C17.934 8.3469 18.0859 8.63961 18.0859 9C18.0859 9.36038 17.934 9.6531 17.7334 9.91602C17.5416 10.1673 17.2627 10.4444 16.9395 10.7676L9.74512 17.9619C9.56928 18.1377 9.4185 18.2942 9.22754 18.4023C9.03664 18.5104 8.82512 18.5589 8.58398 18.6191L5.92969 19.2832C5.7655 19.3242 5.587 19.3702 5.43848 19.3848C5.28375 19.3999 5.02289 19.3959 4.81348 19.1865C4.60407 18.9771 4.6001 18.7163 4.61523 18.5615C4.62976 18.413 4.67575 18.2345 4.7168 18.0703L5.38086 15.416C5.44114 15.1749 5.48962 14.9634 5.59766 14.7725C5.70578 14.5815 5.86225 14.4307 6.03809 14.2549L13.2324 7.06055C13.5556 6.73733 13.8327 6.45837 14.084 6.2666C14.3469 6.066 14.6396 5.91406 15 5.91406Z" stroke="#26231E"/>
<path d="M12.5 7.5L15.5 5.5L18.5 8.5L16.5 11.5L12.5 7.5Z" fill="#26231E"/>
</svg>
