<svg width="24" height="24" viewBox="0 0 24 24" fill="none" xmlns="http://www.w3.org/2000/svg">
<path d="M20 3V2.5H20.5V3H20ZM10.3536 13.3536C10.1583 13.5488 9.84171 13.5488 9.64645 13.3536C9.45118 13.1583 9.45118 12.8417 9.64645 12.6464L10.3536 13.3536ZM19.5 11V3H20.5V11H19.5ZM20 3.5H12V2.5H20V3.5ZM20.3536 3.35355L10.3536 13.3536L9.64645 12.6464L19.6464 2.64645L20.3536 3.35355Z" fill="#26231E"/>
<path d="M18 14.625C18 15.9056 18 16.5459 17.8077 17.0568C17.5034 17.8653 16.8653 18.5034 16.0568 18.8077C15.5459 19 14.9056 19 13.625 19H10C7.17157 19 5.75736 19 4.87868 18.1213C4 17.2426 4 15.8284 4 13V9.375C4 8.09442 4 7.45413 4.19228 6.94325C4.4966 6.1347 5.1347 5.4966 5.94325 5.19228C6.45413 5 7.09442 5 8.375 5" stroke="#26231E" stroke-linecap="round"/>
</svg>
