<svg width="24" height="24" viewBox="0 0 24 24" fill="none" xmlns="http://www.w3.org/2000/svg">
<path d="M10.1443 6.62704C10.931 4.66605 11.3243 3.68555 12.0006 3.68555C12.6769 3.68555 13.0702 4.66605 13.8568 6.62705L13.8934 6.71836C14.3378 7.82623 14.56 8.38016 15.0129 8.71685C15.4657 9.05354 16.0602 9.10678 17.2491 9.21326L17.464 9.2325C19.4099 9.40677 20.3828 9.4939 20.5909 10.1129C20.7991 10.7319 20.0766 11.3892 18.6316 12.7039L18.1493 13.1427C17.4178 13.8082 17.052 14.1409 16.8815 14.5771C16.8497 14.6584 16.8233 14.7418 16.8024 14.8266C16.6903 15.2813 16.7975 15.764 17.0117 16.7295L17.0783 17.03C17.472 18.8043 17.6688 19.6915 17.3252 20.0741C17.1967 20.2171 17.0298 20.3201 16.8444 20.3707C16.3482 20.5061 15.6437 19.932 14.2348 18.7839C13.3096 18.0301 12.847 17.6531 12.3159 17.5683C12.107 17.535 11.8941 17.535 11.6852 17.5683C11.1541 17.6531 10.6915 18.0301 9.76638 18.7839C8.35742 19.932 7.65295 20.5061 7.15675 20.3707C6.97133 20.3201 6.80442 20.2171 6.676 20.0741C6.33232 19.6915 6.52915 18.8043 6.92283 17.03L6.9895 16.7295C7.20371 15.764 7.31082 15.2813 7.19876 14.8266C7.17786 14.7418 7.15142 14.6584 7.11962 14.5771C6.94915 14.1409 6.5834 13.8082 5.85189 13.1427L5.36961 12.7039C3.92456 11.3892 3.20204 10.7319 3.41022 10.1129C3.6184 9.4939 4.59131 9.40677 6.53712 9.2325L6.75206 9.21326C7.94097 9.10678 8.53543 9.05354 8.98828 8.71685C9.44113 8.38016 9.66333 7.82623 10.1077 6.71836L10.1443 6.62704Z" stroke="#26231E"/>
</svg>
